<svg width="164" height="148" viewBox="0 0 164 148" fill="none" xmlns="http://www.w3.org/2000/svg">
<g id="first">
<g id="Rectangle 1" filter="url(#filter0_d)">
<rect x="4" width="156" height="140" fill="#46C96A"/>
<rect x="4.5" y="0.5" width="155" height="139" stroke="black"/>
</g>
<path id="Star 1" d="M81.25 5.67984L95.4222 51.1357L95.5317 51.4868H95.8995L141.818 51.4868L104.652 79.6277L104.372 79.8398L104.476 80.1751L118.661 125.673L81.5518 97.5751L81.25 97.3465L80.9482 97.5751L43.8386 125.673L58.0239 80.1751L58.1285 79.8398L57.8484 79.6277L20.6822 51.4868L66.6005 51.4868H66.9683L67.0778 51.1357L81.25 5.67984Z" fill="#F2C115" stroke="black"/>
<g id="star">
<g filter="url(#filter1_i)">
<path d="M18.018 19.166C17.578 18.7847 17.0133 18.594 16.324 18.594C14.9013 18.594 14.19 19.166 14.19 20.31C14.19 20.6767 14.322 21.0287 14.586 21.366C14.8647 21.6887 15.202 21.9453 15.598 22.136L17.314 22.95C18.986 23.7567 19.822 24.8347 19.822 26.184C19.822 27.1813 19.426 27.9733 18.634 28.56C17.842 29.1467 16.9033 29.44 15.818 29.44C15.246 29.44 14.6447 29.3813 14.014 29.264C13.398 29.1613 12.958 29.0513 12.694 28.934C12.65 28.274 12.518 27.3573 12.298 26.184C12.4593 26.0813 12.5913 26.03 12.694 26.03C12.8113 26.03 12.892 26.0447 12.936 26.074C13.2293 26.954 13.486 27.5187 13.706 27.768C13.8673 27.9293 14.1533 28.1053 14.564 28.296C14.9747 28.4867 15.4587 28.582 16.016 28.582C16.588 28.582 17.0793 28.428 17.49 28.12C17.9007 27.812 18.106 27.35 18.106 26.734C18.106 26.3233 18.0253 26.0153 17.864 25.81C17.7027 25.6047 17.5633 25.4507 17.446 25.348C17.3433 25.2307 17.2187 25.128 17.072 25.04C16.94 24.952 16.8227 24.886 16.72 24.842C16.632 24.7833 16.5367 24.732 16.434 24.688C16.346 24.6293 16.2947 24.6 16.28 24.6L14.63 23.808C13.2073 23.1333 12.496 22.158 12.496 20.882C12.496 19.8407 12.892 19.0707 13.684 18.572C14.476 18.0587 15.3707 17.802 16.368 17.802C16.852 17.802 17.3947 17.868 17.996 18C18.612 18.1173 19.074 18.242 19.382 18.374C19.2793 18.726 19.162 19.5473 19.03 20.838C18.9567 20.8967 18.854 20.926 18.722 20.926C18.6047 20.926 18.4873 20.9113 18.37 20.882C18.2527 20.1487 18.1353 19.5767 18.018 19.166ZM25.2976 24.27C25.2976 26.7047 25.7156 27.922 26.5516 27.922C27.1676 27.922 27.9669 27.7167 28.9496 27.306C29.1696 27.3793 29.2796 27.5847 29.2796 27.922C28.2089 28.494 26.9769 29 25.5836 29.44C24.8943 29.44 24.3663 29.088 23.9996 28.384C23.6476 27.68 23.4716 26.734 23.4716 25.546V20.442C23.4716 19.5767 23.4203 19.144 23.3176 19.144L21.6896 19.166C21.5869 19.1367 21.5356 19.0633 21.5356 18.946C21.6089 18.7993 21.6749 18.5353 21.7336 18.154H23.2956C23.4129 18.154 23.4716 17.8973 23.4716 17.384L23.4496 15.514C23.9923 15.294 24.5496 14.8393 25.1216 14.15C25.2976 14.15 25.4296 14.194 25.5176 14.282C25.3856 15.822 25.3196 17.1127 25.3196 18.154C26.3903 18.154 27.4463 18.1027 28.4876 18C28.5903 18.0587 28.6416 18.1467 28.6416 18.264C28.5536 18.4107 28.4803 18.682 28.4216 19.078L25.2976 19.122V24.27ZM37.8013 20.992L37.7353 26.36C37.7353 27.4307 38.08 27.966 38.7693 27.966L39.5613 27.944C39.62 28.0173 39.6493 28.1347 39.6493 28.296L39.6053 28.538C38.476 28.7433 37.6693 29.044 37.1853 29.44C36.8627 29.352 36.584 29.154 36.3493 28.846C36.1293 28.5233 36.0047 28.186 35.9753 27.834C34.802 28.5527 33.636 29.088 32.4773 29.44C31.9787 29.44 31.4653 29.1613 30.9373 28.604C30.4093 28.032 30.1453 27.3207 30.1453 26.47C30.1453 26.0447 30.2407 25.6633 30.4313 25.326C30.622 24.974 30.8493 24.732 31.1133 24.6C32.1987 24.0573 33.812 23.5807 35.9533 23.17V21.08C35.9533 20.2733 35.8213 19.672 35.5573 19.276C35.308 18.88 35 18.682 34.6333 18.682C34.2813 18.682 33.9 18.748 33.4893 18.88C33.0787 18.9973 32.7853 19.232 32.6093 19.584C32.448 19.936 32.3673 20.4347 32.3673 21.08C32.3673 21.1387 32.2647 21.2047 32.0593 21.278C31.8687 21.3367 31.6193 21.366 31.3113 21.366C31.018 21.366 30.8127 21.3 30.6953 21.168C30.5927 21.0213 30.5413 20.8087 30.5413 20.53C30.5413 20.002 30.9227 19.43 31.6853 18.814C31.8613 18.6967 32.3747 18.4987 33.2253 18.22C34.0907 17.9413 34.5893 17.802 34.7213 17.802C35.7773 17.802 36.5547 18.11 37.0533 18.726C37.552 19.342 37.8013 20.0973 37.8013 20.992ZM32.1033 26.36C32.1033 26.712 32.2427 27.0933 32.5213 27.504C32.8 27.9147 33.1153 28.12 33.4673 28.12C33.834 28.12 34.252 27.9953 34.7213 27.746C35.1907 27.4967 35.5793 27.2327 35.8873 26.954C35.9313 26.0887 35.9533 25.0913 35.9533 23.962C34.7213 24.1233 33.636 24.4753 32.6973 25.018C32.3013 25.2087 32.1033 25.656 32.1033 26.36ZM41.4349 19.122L40.5769 19.144C40.5036 19.0707 40.4669 18.9607 40.4669 18.814L40.5109 18.55C41.5083 18.418 42.3223 18.2127 42.9529 17.934C43.1583 17.846 43.2829 17.802 43.3269 17.802C43.4883 17.802 43.6716 18.0953 43.8769 18.682C44.0823 19.254 44.2069 19.826 44.2509 20.398C45.3509 19.254 46.3483 18.3887 47.2429 17.802C47.8296 17.802 48.3136 17.978 48.6949 18.33C49.0763 18.6673 49.2669 19.0927 49.2669 19.606C49.2669 20.1927 48.7463 20.486 47.7049 20.486C47.4849 19.7087 47.1109 19.32 46.5829 19.32C46.2309 19.32 45.4976 19.9287 44.3829 21.146C44.2949 22.2607 44.2509 24.0353 44.2509 26.47C44.2509 27.6873 44.3463 28.3033 44.5369 28.318C44.8743 28.362 45.4683 28.384 46.3189 28.384C46.3629 28.4867 46.3849 28.604 46.3849 28.736C46.3849 28.868 46.3629 28.978 46.3189 29.066L43.8549 29C42.6523 29 41.5889 29.0587 40.6649 29.176C40.5916 29.088 40.5549 28.9633 40.5549 28.802L40.5769 28.626C41.3543 28.4793 41.8529 28.252 42.0729 27.944C42.2343 27.7093 42.3516 27.3353 42.4249 26.822C42.4983 26.294 42.5349 25.2673 42.5349 23.742C42.5349 22.2167 42.5276 21.3733 42.5129 21.212C42.5129 21.0507 42.5056 20.838 42.4909 20.574C42.4763 20.31 42.4469 20.112 42.4029 19.98C42.3589 19.848 42.2929 19.7013 42.2049 19.54C42.0583 19.2613 41.8016 19.122 41.4349 19.122Z" fill="#FF001F"/>
</g>
<path d="M18.018 19.166L18.9795 18.8913L18.8978 18.6052L18.6729 18.4103L18.018 19.166ZM14.586 21.366L13.7985 21.9823L13.8134 22.0013L13.8292 22.0196L14.586 21.366ZM15.598 22.136L15.1642 23.037L15.1694 23.0395L15.598 22.136ZM17.314 22.95L17.7485 22.0493L17.7426 22.0465L17.314 22.95ZM18.634 28.56L18.0388 27.7564L18.0388 27.7564L18.634 28.56ZM14.014 29.264L14.1969 28.2809L14.1877 28.2792L14.1784 28.2776L14.014 29.264ZM12.694 28.934L11.6962 29.0005L11.7364 29.6027L12.2879 29.8478L12.694 28.934ZM12.298 26.184L11.7611 25.3403L11.1905 25.7035L11.3151 26.3683L12.298 26.184ZM12.936 26.074L13.8847 25.7578L13.7762 25.4323L13.4907 25.2419L12.936 26.074ZM13.706 27.768L12.9562 28.4296L12.9768 28.453L12.9989 28.4751L13.706 27.768ZM14.564 28.296L14.1429 29.203L14.1429 29.203L14.564 28.296ZM17.864 25.81L17.0777 26.4278L17.0777 26.4278L17.864 25.81ZM17.446 25.348L16.6934 26.0065L16.7373 26.0567L16.7875 26.1006L17.446 25.348ZM17.072 25.04L16.5173 25.8721L16.5371 25.8852L16.5575 25.8975L17.072 25.04ZM16.72 24.842L16.1653 25.6741L16.2417 25.725L16.3261 25.7611L16.72 24.842ZM16.434 24.688L15.8793 25.5201L15.9557 25.571L16.0401 25.6071L16.434 24.688ZM16.28 24.6L15.8473 25.5015L16.0524 25.6H16.28V24.6ZM14.63 23.808L15.0627 22.9065L15.0585 22.9045L14.63 23.808ZM13.684 18.572L14.2169 19.4183L14.2279 19.4112L13.684 18.572ZM17.996 18L17.7816 18.9767L17.7952 18.9797L17.8089 18.9823L17.996 18ZM19.382 18.374L20.342 18.654L20.59 17.8037L19.7759 17.4549L19.382 18.374ZM19.03 20.838L19.6547 21.6189L19.9821 21.3569L20.0248 20.9397L19.03 20.838ZM18.37 20.882L17.3826 21.04L17.4869 21.692L18.1275 21.8521L18.37 20.882ZM18.6729 18.4103C18.0188 17.8434 17.2074 17.594 16.324 17.594V19.594C16.8193 19.594 17.1372 19.726 17.3631 19.9217L18.6729 18.4103ZM16.324 17.594C15.5049 17.594 14.7054 17.7544 14.0968 18.2437C13.4466 18.7665 13.19 19.5191 13.19 20.31H15.19C15.19 19.9569 15.289 19.8515 15.3502 19.8023C15.4529 19.7196 15.7204 19.594 16.324 19.594V17.594ZM13.19 20.31C13.19 20.9363 13.421 21.4999 13.7985 21.9823L15.3735 20.7497C15.223 20.5574 15.19 20.417 15.19 20.31H13.19ZM13.8292 22.0196C14.2002 22.4492 14.6486 22.7888 15.1642 23.037L16.0318 21.235C15.7554 21.1019 15.5291 20.9281 15.3428 20.7124L13.8292 22.0196ZM15.1694 23.0395L16.8854 23.8535L17.7426 22.0465L16.0266 21.2325L15.1694 23.0395ZM16.8795 23.8507C18.3569 24.5635 18.822 25.3618 18.822 26.184H20.822C20.822 24.3075 19.6151 22.9499 17.7485 22.0493L16.8795 23.8507ZM18.822 26.184C18.822 26.8689 18.5726 27.361 18.0388 27.7564L19.2292 29.3636C20.2794 28.5857 20.822 27.4937 20.822 26.184H18.822ZM18.0388 27.7564C17.4365 28.2026 16.7118 28.44 15.818 28.44V30.44C17.0948 30.44 18.2475 30.0908 19.2292 29.3636L18.0388 27.7564ZM15.818 28.44C15.3142 28.44 14.7744 28.3883 14.1969 28.2809L13.8311 30.2471C14.5149 30.3744 15.1778 30.44 15.818 30.44V28.44ZM14.1784 28.2776C13.5725 28.1766 13.2401 28.0824 13.1001 28.0202L12.2879 29.8478C12.6759 30.0203 13.2235 30.1461 13.8496 30.2504L14.1784 28.2776ZM13.6918 28.8675C13.6439 28.1485 13.5034 27.1864 13.2809 25.9997L11.3151 26.3683C11.5326 27.5283 11.6561 28.3995 11.6962 29.0005L13.6918 28.8675ZM12.8349 27.0277C12.8782 27.0001 12.8922 26.9959 12.8804 27.0005C12.8734 27.0032 12.8546 27.0101 12.8252 27.0165C12.7959 27.0229 12.7511 27.03 12.694 27.03V25.03C12.298 25.03 11.9651 25.2105 11.7611 25.3403L12.8349 27.0277ZM12.694 27.03C12.716 27.03 12.7015 27.0318 12.6636 27.0249C12.6433 27.0212 12.6081 27.0135 12.5633 26.9977C12.5192 26.9822 12.454 26.9545 12.3813 26.9061L13.4907 25.2419C13.31 25.1215 13.1298 25.0768 13.0214 25.0571C12.9028 25.0356 12.7894 25.03 12.694 25.03V27.03ZM11.9873 26.3902C12.1402 26.8489 12.2901 27.2457 12.4381 27.5713C12.5785 27.8801 12.7466 28.1921 12.9562 28.4296L14.4558 27.1064C14.4571 27.1078 14.4364 27.0837 14.3971 27.0166C14.3593 26.952 14.313 26.8627 14.2589 26.7437C14.1502 26.5046 14.0251 26.1791 13.8847 25.7578L11.9873 26.3902ZM12.9989 28.4751C13.2898 28.766 13.7094 29.0017 14.1429 29.203L14.9851 27.389C14.5973 27.2089 14.4449 27.0927 14.4131 27.0609L12.9989 28.4751ZM14.1429 29.203C14.7123 29.4674 15.346 29.582 16.016 29.582V27.582C15.5713 27.582 15.237 27.5059 14.9851 27.389L14.1429 29.203ZM16.016 29.582C16.7784 29.582 17.4865 29.3726 18.09 28.92L16.89 27.32C16.6721 27.4834 16.3976 27.582 16.016 27.582V29.582ZM18.09 28.92C18.8042 28.3844 19.106 27.594 19.106 26.734H17.106C17.106 27.106 16.9972 27.2396 16.89 27.32L18.09 28.92ZM19.106 26.734C19.106 26.2196 19.0096 25.6494 18.6503 25.1922L17.0777 26.4278C17.0572 26.4018 17.0651 26.3986 17.0781 26.4484C17.0916 26.4998 17.106 26.5909 17.106 26.734H19.106ZM18.6503 25.1922C18.4726 24.966 18.2892 24.7571 18.1045 24.5954L16.7875 26.1006C16.8374 26.1443 16.9328 26.2434 17.0777 26.4278L18.6503 25.1922ZM18.1986 24.6895C18.0211 24.4866 17.8138 24.3189 17.5865 24.1825L16.5575 25.8975C16.6235 25.9371 16.6656 25.9747 16.6934 26.0065L18.1986 24.6895ZM17.6267 24.2079C17.4632 24.0989 17.2906 23.9986 17.1139 23.9229L16.3261 25.7611C16.3547 25.7734 16.4168 25.8051 16.5173 25.8721L17.6267 24.2079ZM17.2747 24.0099C17.1331 23.9156 16.9836 23.8356 16.8279 23.7689L16.0401 25.6071C16.0897 25.6284 16.1309 25.6511 16.1653 25.6741L17.2747 24.0099ZM16.9887 23.8559C16.9379 23.8221 16.8809 23.7853 16.8256 23.7538C16.7994 23.7388 16.7561 23.7148 16.704 23.6917C16.7025 23.691 16.5196 23.6 16.28 23.6V25.6C16.2013 25.6 16.1374 25.5906 16.0961 25.5827C16.053 25.5745 16.0178 25.5648 15.9931 25.5572C15.9452 25.5424 15.9095 25.5272 15.8917 25.5193C15.8562 25.5035 15.8339 25.4905 15.8334 25.4902C15.8294 25.488 15.8421 25.4952 15.8793 25.5201L16.9887 23.8559ZM16.7127 23.6985L15.0627 22.9065L14.1973 24.7095L15.8473 25.5015L16.7127 23.6985ZM15.0585 22.9045C14.4534 22.6175 14.0694 22.2993 13.8374 21.9812C13.6139 21.6748 13.496 21.321 13.496 20.882H11.496C11.496 21.719 11.7337 22.4909 12.2216 23.1598C12.7009 23.817 13.3839 24.3238 14.2015 24.7115L15.0585 22.9045ZM13.496 20.882C13.496 20.1383 13.7525 19.7106 14.2168 19.4182L13.1512 17.7258C12.0315 18.4308 11.496 19.5431 11.496 20.882H13.496ZM14.2279 19.4112C14.8485 19.0089 15.5522 18.802 16.368 18.802V16.802C15.1891 16.802 14.1035 17.1084 13.1401 17.7328L14.2279 19.4112ZM16.368 18.802C16.7635 18.802 17.2327 18.8562 17.7816 18.9767L18.2104 17.0233C17.5567 16.8798 16.9405 16.802 16.368 16.802V18.802ZM17.8089 18.9823C18.4039 19.0957 18.781 19.2044 18.9881 19.2931L19.7759 17.4549C19.367 17.2796 18.8201 17.139 18.1831 17.0177L17.8089 18.9823ZM18.422 18.094C18.2886 18.5514 18.1645 19.472 18.0352 20.7363L20.0248 20.9397C20.1595 19.6226 20.2701 18.9006 20.342 18.654L18.422 18.094ZM18.4053 20.0571C18.5689 19.9262 18.7174 19.926 18.722 19.926V21.926C18.9906 21.926 19.3444 21.8671 19.6547 21.6189L18.4053 20.0571ZM18.722 19.926C18.6889 19.926 18.653 19.922 18.6125 19.9119L18.1275 21.8521C18.3217 21.9007 18.5204 21.926 18.722 21.926V19.926ZM19.3574 20.724C19.2377 19.9755 19.1129 19.3583 18.9795 18.8913L17.0565 19.4407C17.1577 19.7951 17.2677 20.3219 17.3826 21.04L19.3574 20.724ZM28.9496 27.306L29.2658 26.3573L28.91 26.2387L28.564 26.3833L28.9496 27.306ZM29.2796 27.922L29.7508 28.804L30.2796 28.5215V27.922H29.2796ZM25.5836 29.44V30.44H25.7377L25.8847 30.3936L25.5836 29.44ZM23.9996 28.384L23.1052 28.8312L23.1089 28.8386L23.1127 28.8459L23.9996 28.384ZM23.3176 19.144L23.3176 18.1439L23.3041 18.1441L23.3176 19.144ZM21.6896 19.166L21.4149 20.1275L21.5562 20.1679L21.7031 20.1659L21.6896 19.166ZM21.5356 18.946L20.6412 18.4988L20.5356 18.7099V18.946H21.5356ZM21.7336 18.154V17.154H20.8757L20.7452 18.0019L21.7336 18.154ZM23.4716 17.384H24.4717L24.4715 17.3722L23.4716 17.384ZM23.4496 15.514L23.0739 14.5873L22.4416 14.8436L22.4497 15.5258L23.4496 15.514ZM25.1216 14.15V13.15H24.6519L24.352 13.5114L25.1216 14.15ZM25.5176 14.282L26.5139 14.3674L26.5537 13.9039L26.2247 13.5749L25.5176 14.282ZM25.3196 18.154H24.3196V19.154H25.3196V18.154ZM28.4876 18L28.9837 17.1318L28.7068 16.9735L28.3895 17.0048L28.4876 18ZM28.6416 18.264L29.4991 18.7785L29.6416 18.541V18.264H28.6416ZM28.4216 19.078L28.4357 20.0779L29.2862 20.0659L29.4108 19.2245L28.4216 19.078ZM25.2976 19.122L25.2835 18.1221L24.2976 18.136V19.122H25.2976ZM24.2976 24.27C24.2976 25.5177 24.4013 26.565 24.6653 27.3338C24.9248 28.0895 25.4867 28.922 26.5516 28.922V26.922C26.7805 26.922 26.7154 27.1459 26.5569 26.6842C26.4029 26.2357 26.2976 25.457 26.2976 24.27H24.2976ZM26.5516 28.922C27.363 28.922 28.3065 28.6586 29.3352 28.2287L28.564 26.3833C27.6274 26.7747 26.9722 26.922 26.5516 26.922V28.922ZM28.6334 28.2547C28.577 28.2359 28.5114 28.2027 28.4488 28.1498C28.3862 28.0969 28.343 28.0384 28.3156 27.9872C28.2657 27.8941 28.2796 27.8492 28.2796 27.922H30.2796C30.2796 27.6574 30.2384 27.3412 30.0786 27.0428C29.9035 26.716 29.6194 26.4752 29.2658 26.3573L28.6334 28.2547ZM28.8084 27.04C27.8017 27.5778 26.6285 28.0614 25.2825 28.4864L25.8847 30.3936C27.3254 29.9386 28.6161 29.4102 29.7508 28.804L28.8084 27.04ZM25.5836 28.44C25.4185 28.44 25.3108 28.401 25.2253 28.3439C25.1324 28.282 25.0112 28.1616 24.8865 27.9221L23.1127 28.8459C23.3546 29.3104 23.6808 29.718 24.1159 30.0081C24.5584 30.303 25.0593 30.44 25.5836 30.44V28.44ZM24.894 27.9368C24.6378 27.4243 24.4716 26.651 24.4716 25.546H22.4716C22.4716 26.817 22.6574 27.9357 23.1052 28.8312L24.894 27.9368ZM24.4716 25.546V20.442H22.4716V25.546H24.4716ZM24.4716 20.442C24.4716 20.0003 24.459 19.6277 24.4261 19.3507C24.4108 19.2219 24.3846 19.0514 24.3271 18.8898C24.2998 18.8131 24.2416 18.6682 24.123 18.5254C23.9958 18.3723 23.727 18.144 23.3176 18.144V20.144C22.9339 20.144 22.6891 19.9293 22.5844 19.8032C22.4882 19.6874 22.4509 19.5831 22.4429 19.5604C22.4238 19.507 22.4297 19.4988 22.4401 19.5863C22.4585 19.7419 22.4716 20.0183 22.4716 20.442H24.4716ZM23.3041 18.1441L21.6761 18.1661L21.7031 20.1659L23.3311 20.1439L23.3041 18.1441ZM21.9643 18.2045C22.0894 18.2402 22.2632 18.3297 22.3933 18.5155C22.517 18.6922 22.5356 18.8627 22.5356 18.946H20.5356C20.5356 19.1466 20.5799 19.4125 20.7549 19.6625C20.9363 19.9217 21.1872 20.0625 21.4149 20.1275L21.9643 18.2045ZM22.43 19.3932C22.5802 19.0928 22.6631 18.6889 22.722 18.3061L20.7452 18.0019C20.7188 18.1736 20.6931 18.3028 20.67 18.3955C20.6447 18.4965 20.6309 18.5193 20.6412 18.4988L22.43 19.3932ZM21.7336 19.154H23.2956V17.154H21.7336V19.154ZM23.2956 19.154C23.7579 19.154 24.056 18.8774 24.1973 18.6714C24.3232 18.4878 24.3764 18.2981 24.4025 18.1843C24.4576 17.943 24.4716 17.6591 24.4716 17.384H22.4716C22.4716 17.4947 22.4684 17.5806 22.4635 17.6449C22.4584 17.7123 22.4526 17.7395 22.4527 17.7387C22.4531 17.7373 22.4572 17.719 22.4684 17.6897C22.4789 17.6621 22.5024 17.6067 22.5479 17.5403C22.5933 17.474 22.6749 17.3764 22.8068 17.294C22.9476 17.206 23.1167 17.154 23.2956 17.154V19.154ZM24.4715 17.3722L24.4495 15.5022L22.4497 15.5258L22.4717 17.3958L24.4715 17.3722ZM23.8253 16.4407C24.5811 16.1343 25.2647 15.5435 25.8912 14.7886L24.352 13.5114C23.8345 14.1351 23.4035 14.4536 23.0739 14.5873L23.8253 16.4407ZM25.1216 15.15C25.1435 15.15 24.9762 15.1548 24.8105 14.9891L26.2247 13.5749C25.883 13.2332 25.4517 13.15 25.1216 13.15V15.15ZM24.5212 14.1966C24.3879 15.7528 24.3196 17.0741 24.3196 18.154H26.3196C26.3196 17.1512 26.3833 15.8912 26.5139 14.3674L24.5212 14.1966ZM25.3196 19.154C26.4223 19.154 27.511 19.1011 28.5857 18.9952L28.3895 17.0048C27.3815 17.1042 26.3583 17.154 25.3196 17.154V19.154ZM27.9915 18.8682C27.9151 18.8246 27.8154 18.7444 27.7393 18.6139C27.663 18.483 27.6416 18.3551 27.6416 18.264H29.6416C29.6416 17.7843 29.395 17.3667 28.9837 17.1318L27.9915 18.8682ZM27.7841 17.7495C27.5838 18.0833 27.4913 18.534 27.4324 18.9315L29.4108 19.2245C29.4366 19.0504 29.4627 18.9244 29.486 18.8384C29.5119 18.7425 29.5232 18.7384 29.4991 18.7785L27.7841 17.7495ZM28.4075 18.0781L25.2835 18.1221L25.3117 20.1219L28.4357 20.0779L28.4075 18.0781ZM24.2976 19.122V24.27H26.2976V19.122H24.2976ZM37.8013 20.992L38.8013 21.0043V20.992H37.8013ZM37.7353 26.36L36.7353 26.3477V26.36H37.7353ZM38.7693 27.966V28.966H38.7832L38.7971 28.9656L38.7693 27.966ZM39.5613 27.944L40.3422 27.3193L40.0312 26.9306L39.5336 26.9444L39.5613 27.944ZM39.6493 28.296L40.6332 28.4749L40.6493 28.3862V28.296H39.6493ZM39.6053 28.538L39.7842 29.5219L40.4654 29.398L40.5892 28.7169L39.6053 28.538ZM37.1853 29.44L36.9222 30.4048L37.4196 30.5404L37.8186 30.214L37.1853 29.44ZM36.3493 28.846L35.5231 29.4093L35.5379 29.4311L35.5539 29.452L36.3493 28.846ZM35.9753 27.834L36.9719 27.751L36.8371 26.1335L35.453 26.9812L35.9753 27.834ZM32.4773 29.44V30.44H32.6259L32.768 30.3968L32.4773 29.44ZM30.9373 28.604L30.2025 29.2823L30.2114 29.2917L30.9373 28.604ZM30.4313 25.326L31.3019 25.8181L31.3063 25.8102L31.3106 25.8023L30.4313 25.326ZM31.1133 24.6L31.5605 25.4944L31.5605 25.4944L31.1133 24.6ZM35.9533 23.17L36.1417 24.1521L36.9533 23.9964V23.17H35.9533ZM35.5573 19.276L34.7111 19.8088L34.718 19.8198L34.7253 19.8307L35.5573 19.276ZM33.4893 18.88L33.764 19.8415L33.7798 19.837L33.7953 19.832L33.4893 18.88ZM32.6093 19.584L31.7149 19.1368L31.7073 19.1519L31.7003 19.1673L32.6093 19.584ZM32.0593 21.278L32.3534 22.2338L32.3747 22.2272L32.3957 22.2197L32.0593 21.278ZM30.6953 21.168L29.8761 21.7415L29.9094 21.789L29.9479 21.8324L30.6953 21.168ZM31.6853 18.814L31.1306 17.9819L31.0926 18.0073L31.057 18.0361L31.6853 18.814ZM33.2253 18.22L32.9188 17.2681L32.914 17.2697L33.2253 18.22ZM37.0533 18.726L37.8306 18.0968L37.8306 18.0968L37.0533 18.726ZM32.5213 27.504L31.6939 28.0655L31.6939 28.0655L32.5213 27.504ZM34.7213 27.746L35.1905 28.6291L35.1905 28.6291L34.7213 27.746ZM35.8873 26.954L36.5582 27.6955L36.865 27.418L36.886 27.0048L35.8873 26.954ZM35.9533 23.962H36.9533V22.8225L35.8235 22.9705L35.9533 23.962ZM32.6973 25.018L33.1311 25.919L33.1652 25.9026L33.1978 25.8837L32.6973 25.018ZM36.8014 20.9797L36.7354 26.3477L38.7353 26.3723L38.8013 21.0043L36.8014 20.9797ZM36.7353 26.36C36.7353 26.9706 36.8278 27.6007 37.153 28.1058C37.5269 28.6865 38.1182 28.966 38.7693 28.966V26.966C38.7277 26.966 38.7399 26.9585 38.7767 26.9776C38.8169 26.9984 38.8353 27.0243 38.8346 27.0232C38.8296 27.0153 38.8025 26.9682 38.7777 26.8528C38.7531 26.7381 38.7353 26.5771 38.7353 26.36H36.7353ZM38.7971 28.9656L39.5891 28.9436L39.5336 26.9444L38.7416 26.9664L38.7971 28.9656ZM38.7805 28.5687C38.698 28.4657 38.6677 28.3718 38.6572 28.3295C38.6467 28.2876 38.6493 28.2717 38.6493 28.296H40.6493C40.6493 28.0551 40.6134 27.6583 40.3422 27.3193L38.7805 28.5687ZM38.6655 28.1171L38.6215 28.3591L40.5892 28.7169L40.6332 28.4749L38.6655 28.1171ZM39.4264 27.5541C38.2483 27.7683 37.2363 28.1062 36.5521 28.666L37.8186 30.214C38.1023 29.9818 38.7036 29.7183 39.7842 29.5219L39.4264 27.5541ZM37.4484 28.4752C37.3702 28.4539 37.2681 28.4019 37.1448 28.24L35.5539 29.452C35.8999 29.9061 36.3551 30.2501 36.9222 30.4048L37.4484 28.4752ZM37.1756 28.2827C37.0423 28.0873 36.9854 27.9131 36.9719 27.751L34.9788 27.917C35.0239 28.4589 35.2163 28.9594 35.5231 29.4093L37.1756 28.2827ZM35.453 26.9812C34.3425 27.6614 33.2538 28.159 32.1866 28.4832L32.768 30.3968C34.0182 30.017 35.2615 29.4439 36.4976 28.6868L35.453 26.9812ZM32.4773 28.44C32.3713 28.44 32.1029 28.3803 31.6633 27.9163L30.2114 29.2917C30.8277 29.9424 31.586 30.44 32.4773 30.44V28.44ZM31.6721 27.9257C31.3311 27.5563 31.1453 27.0946 31.1453 26.47H29.1453C29.1453 27.5467 29.4876 28.5077 30.2025 29.2823L31.6721 27.9257ZM31.1453 26.47C31.1453 26.1998 31.2042 25.9909 31.3019 25.8181L29.5608 24.8339C29.2771 25.3357 29.1453 25.8895 29.1453 26.47H31.1453ZM31.3106 25.8023C31.4377 25.5677 31.5351 25.5072 31.5605 25.4944L30.6661 23.7056C30.1636 23.9568 29.8063 24.3803 29.552 24.8497L31.3106 25.8023ZM31.5605 25.4944C32.5235 25.013 34.0309 24.5569 36.1417 24.1521L35.765 22.1879C33.5931 22.6044 31.8739 23.1017 30.6661 23.7056L31.5605 25.4944ZM36.9533 23.17V21.08H34.9533V23.17H36.9533ZM36.9533 21.08C36.9533 20.1983 36.8153 19.3602 36.3894 18.7213L34.7253 19.8307C34.8274 19.9838 34.9533 20.3484 34.9533 21.08H36.9533ZM36.4036 18.7432C36.0287 18.1478 35.4392 17.682 34.6333 17.682V19.682C34.6338 19.682 34.6267 19.6819 34.6157 19.6787C34.6047 19.6754 34.5985 19.6716 34.5986 19.6717C34.6001 19.6727 34.6435 19.7015 34.7111 19.8088L36.4036 18.7432ZM34.6333 17.682C34.1571 17.682 33.6714 17.7711 33.1833 17.928L33.7953 19.832C34.1285 19.7249 34.4055 19.682 34.6333 19.682V17.682ZM33.2146 17.9185C32.5601 18.1055 32.0277 18.5111 31.7149 19.1368L33.5038 20.0312C33.5429 19.9529 33.5972 19.8892 33.764 19.8415L33.2146 17.9185ZM31.7003 19.1673C31.4519 19.7092 31.3673 20.3745 31.3673 21.08H33.3673C33.3673 20.4948 33.4441 20.1628 33.5184 20.0007L31.7003 19.1673ZM31.3673 21.08C31.3673 20.7887 31.4967 20.5862 31.5761 20.4897C31.6538 20.3954 31.7278 20.3463 31.7496 20.3323C31.7937 20.304 31.8006 20.3086 31.723 20.3363L32.3957 22.2197C32.5234 22.1741 32.6843 22.109 32.8311 22.0147C32.9041 21.9677 33.0167 21.8865 33.12 21.7611C33.2252 21.6334 33.3673 21.4006 33.3673 21.08H31.3673ZM31.7652 20.3222C31.7068 20.3402 31.5676 20.366 31.3113 20.366V22.366C31.6711 22.366 32.0305 22.3331 32.3534 22.2338L31.7652 20.3222ZM31.3113 20.366C31.2338 20.366 31.2187 20.3566 31.2433 20.3645C31.2733 20.3741 31.3589 20.4093 31.4427 20.5036L29.9479 21.8324C30.3493 22.284 30.9144 22.366 31.3113 22.366V20.366ZM31.5146 20.5945C31.5489 20.6436 31.5546 20.6749 31.5519 20.6639C31.549 20.6519 31.5413 20.6107 31.5413 20.53H29.5413C29.5413 20.9077 29.6069 21.3568 29.8761 21.7415L31.5146 20.5945ZM31.5413 20.53C31.5413 20.4825 31.5987 20.1694 32.3137 19.5919L31.057 18.0361C30.2466 18.6906 29.5413 19.5215 29.5413 20.53H31.5413ZM32.24 19.6461C32.2244 19.6564 32.299 19.612 32.5622 19.5105C32.7961 19.4203 33.1189 19.3072 33.5366 19.1703L32.914 17.2697C32.4811 17.4115 32.1219 17.5367 31.8425 17.6445C31.5923 17.741 31.3222 17.8542 31.1306 17.9819L32.24 19.6461ZM33.5319 19.1719C33.9599 19.034 34.2866 18.9341 34.5174 18.8696C34.6336 18.8372 34.7157 18.8164 34.7693 18.8046C34.8498 18.7868 34.8094 18.802 34.7213 18.802V16.802C34.5673 16.802 34.415 16.8346 34.3379 16.8517C34.2338 16.8747 34.1124 16.9062 33.9792 16.9434C33.7114 17.0182 33.3561 17.1273 32.9188 17.2681L33.5319 19.1719ZM34.7213 18.802C35.5829 18.802 36.0258 19.0461 36.2761 19.3552L37.8306 18.0968C37.0835 17.1739 35.9717 16.802 34.7213 16.802V18.802ZM36.2761 19.3552C36.6121 19.7703 36.8013 20.2952 36.8013 20.992H38.8013C38.8013 19.8995 38.4919 18.9137 37.8306 18.0968L36.2761 19.3552ZM31.1033 26.36C31.1033 26.9788 31.3471 27.5545 31.6939 28.0655L33.3488 26.9425C33.1382 26.6321 33.1033 26.4452 33.1033 26.36H31.1033ZM31.6939 28.0655C32.0761 28.6288 32.6599 29.12 33.4673 29.12V27.12C33.4782 27.12 33.4916 27.1218 33.5043 27.1257C33.5164 27.1295 33.5194 27.1325 33.5125 27.128C33.4956 27.117 33.4361 27.0711 33.3488 26.9425L31.6939 28.0655ZM33.4673 29.12C34.0546 29.12 34.6372 28.9231 35.1905 28.6291L34.2522 26.8629C33.8668 27.0676 33.6134 27.12 33.4673 27.12V29.12ZM35.1905 28.6291C35.7135 28.3513 36.1748 28.0424 36.5582 27.6955L35.2164 26.2125C34.9838 26.4229 34.6678 26.6421 34.2522 26.8629L35.1905 28.6291ZM36.886 27.0048C36.9311 26.1184 36.9533 25.1035 36.9533 23.962H34.9533C34.9533 25.0792 34.9315 26.059 34.8886 26.9032L36.886 27.0048ZM35.8235 22.9705C34.4798 23.1464 33.265 23.5347 32.1968 24.1523L33.1978 25.8837C34.007 25.4159 34.9629 25.1002 36.0832 24.9535L35.8235 22.9705ZM32.2635 24.117C31.3408 24.5613 31.1033 25.5244 31.1033 26.36H33.1033C33.1033 26.0909 33.1428 25.9543 33.1663 25.9012C33.1762 25.8788 33.1796 25.8796 33.1693 25.8905C33.158 25.9027 33.1433 25.9131 33.1311 25.919L32.2635 24.117ZM41.4349 19.122V18.122H41.4221L41.4093 18.1223L41.4349 19.122ZM40.5769 19.144L39.8698 19.8511L40.1734 20.1547L40.6026 20.1437L40.5769 19.144ZM40.4669 18.814L39.4805 18.6496L39.4669 18.7312V18.814H40.4669ZM40.5109 18.55L40.3797 17.5586L39.6462 17.6557L39.5245 18.3856L40.5109 18.55ZM42.9529 17.934L42.559 17.0148L42.5488 17.0193L42.9529 17.934ZM43.8769 18.682L42.933 19.0124L42.9357 19.0199L43.8769 18.682ZM44.2509 20.398L43.2539 20.4747L43.425 22.6997L44.9718 21.0911L44.2509 20.398ZM47.2429 17.802V16.802H46.9443L46.6946 16.9658L47.2429 17.802ZM48.6949 18.33L48.0167 19.0648L48.0244 19.072L48.0324 19.079L48.6949 18.33ZM47.7049 20.486L46.7427 20.7583L46.9487 21.486H47.7049V20.486ZM44.3829 21.146L43.6454 20.4707L43.4131 20.7244L43.386 21.0673L44.3829 21.146ZM44.5369 28.318L44.6663 27.3264L44.64 27.323L44.6136 27.3209L44.5369 28.318ZM46.3189 28.384L47.2381 27.9901L46.9783 27.384H46.3189V28.384ZM46.3189 29.066L46.2922 30.0656L46.9286 30.0827L47.2134 29.5132L46.3189 29.066ZM43.8549 29L43.8817 28.0004L43.8683 28H43.8549V29ZM40.6649 29.176L39.8967 29.8162L40.2474 30.237L40.7909 30.168L40.6649 29.176ZM40.5549 28.802L39.5627 28.678L39.5549 28.7397V28.802H40.5549ZM40.5769 28.626L40.3915 27.6433L39.6751 27.7785L39.5847 28.502L40.5769 28.626ZM42.0729 27.944L42.8867 28.5252L42.8919 28.5179L42.897 28.5105L42.0729 27.944ZM42.4249 26.822L43.4149 26.9634L43.4154 26.9596L42.4249 26.822ZM42.5129 21.212H41.5129V21.2574L41.517 21.3025L42.5129 21.212ZM42.4909 20.574L41.4925 20.6295L41.4925 20.6295L42.4909 20.574ZM42.4029 19.98L43.3516 19.6638L43.3516 19.6638L42.4029 19.98ZM42.2049 19.54L41.32 20.0057L41.3235 20.0123L41.327 20.0189L42.2049 19.54ZM41.4093 18.1223L40.5513 18.1443L40.6026 20.1437L41.4606 20.1217L41.4093 18.1223ZM41.284 18.4369C41.4644 18.6172 41.4669 18.8065 41.4669 18.814H39.4669C39.4669 19.1148 39.5428 19.5241 39.8698 19.8511L41.284 18.4369ZM41.4533 18.9784L41.4973 18.7144L39.5245 18.3856L39.4805 18.6496L41.4533 18.9784ZM40.6421 19.5414C41.6946 19.4021 42.6097 19.1789 43.3571 18.8487L42.5488 17.0193C42.0348 17.2464 41.3219 17.4339 40.3797 17.5586L40.6421 19.5414ZM43.3469 18.8531C43.3925 18.8336 43.4311 18.8176 43.4632 18.8047C43.4957 18.7917 43.5186 18.7832 43.5333 18.778C43.5404 18.7755 43.544 18.7743 43.5445 18.7741C43.5454 18.7739 43.5406 18.7754 43.5312 18.7779C43.5228 18.7801 43.5032 18.785 43.4756 18.7897C43.4614 18.7921 43.4421 18.795 43.4189 18.7974C43.3961 18.7997 43.3647 18.802 43.3269 18.802V16.802C43.1834 16.802 43.066 16.8323 43.0264 16.8426C42.9682 16.8578 42.9132 16.8759 42.8676 16.892C42.7754 16.9245 42.6701 16.9672 42.559 17.0149L43.3469 18.8531ZM43.3269 18.802C43.0497 18.802 42.8696 18.6744 42.8039 18.6185C42.7392 18.5634 42.7204 18.5248 42.7374 18.552C42.7505 18.5728 42.7761 18.6191 42.8123 18.701C42.8477 18.7811 42.8881 18.8838 42.9331 19.0124L44.8208 18.3516C44.7097 18.0343 44.5837 17.7324 44.4334 17.492C44.3588 17.3726 44.2511 17.2239 44.1002 17.0955C43.9484 16.9663 43.6849 16.802 43.3269 16.802V18.802ZM42.9357 19.0199C43.1127 19.5127 43.2171 19.997 43.2539 20.4747L45.248 20.3213C45.1967 19.655 45.0519 18.9953 44.8181 18.3441L42.9357 19.0199ZM44.9718 21.0911C46.0422 19.9778 46.9815 19.1692 47.7913 18.6382L46.6946 16.9658C45.715 17.6081 44.6597 18.5302 43.5301 19.7049L44.9718 21.0911ZM47.2429 18.802C47.6135 18.802 47.8445 18.9058 48.0167 19.0648L49.3732 17.5952C48.7828 17.0502 48.0457 16.802 47.2429 16.802V18.802ZM48.0324 19.079C48.1971 19.2247 48.2669 19.3764 48.2669 19.606H50.2669C50.2669 18.8089 49.9554 18.1099 49.3575 17.581L48.0324 19.079ZM48.2669 19.606C48.2669 19.6004 48.2697 19.5476 48.3087 19.4818C48.347 19.4169 48.3889 19.3929 48.3856 19.3948C48.3763 19.4 48.3247 19.4255 48.2037 19.4482C48.0847 19.4705 47.9212 19.486 47.7049 19.486V21.486C48.2867 21.486 48.8836 21.4098 49.3673 21.1372C49.9349 20.8175 50.2669 20.2687 50.2669 19.606H48.2669ZM48.6671 20.2137C48.5329 19.7394 48.3237 19.2752 47.98 18.9181C47.6091 18.5326 47.1254 18.32 46.5829 18.32V20.32C46.5892 20.32 46.5757 20.3205 46.5543 20.3112C46.5334 20.3022 46.5285 20.2941 46.5389 20.3049C46.5692 20.3364 46.657 20.4553 46.7427 20.7583L48.6671 20.2137ZM46.5829 18.32C46.2378 18.32 45.9445 18.4575 45.7583 18.5619C45.5498 18.6789 45.3385 18.8342 45.1303 19.007C44.7122 19.354 44.2148 19.8489 43.6454 20.4707L45.1205 21.8213C45.6658 21.2258 46.0923 20.8077 46.4076 20.546C46.5661 20.4144 46.6738 20.3416 46.7366 20.3063C46.8217 20.2586 46.752 20.32 46.5829 20.32V18.32ZM43.386 21.0673C43.2947 22.224 43.2509 24.0322 43.2509 26.47H45.2509C45.2509 24.0385 45.2952 22.2974 45.3798 21.2247L43.386 21.0673ZM43.2509 26.47C43.2509 27.0913 43.2744 27.6118 43.3342 27.9979C43.3627 28.1823 43.4092 28.4046 43.5011 28.6073C43.5645 28.7471 43.8263 29.2663 44.4602 29.3151L44.6136 27.3209C44.8761 27.3411 45.0652 27.4666 45.1731 27.5733C45.2699 27.6691 45.3118 27.7575 45.3225 27.7812C45.343 27.8263 45.3298 27.8157 45.3107 27.6921C45.2751 27.4622 45.2509 27.066 45.2509 26.47H43.2509ZM44.4076 29.3096C44.8168 29.363 45.4702 29.384 46.3189 29.384V27.384C45.4664 27.384 44.9318 27.361 44.6663 27.3264L44.4076 29.3096ZM45.3998 28.7779C45.3817 28.7356 45.3849 28.7152 45.3849 28.736H47.3849C47.3849 28.4928 47.3442 28.2377 47.2381 27.9901L45.3998 28.7779ZM45.3849 28.736C45.3849 28.7633 45.3795 28.7087 45.4245 28.6188L47.2134 29.5132C47.3463 29.2473 47.3849 28.9727 47.3849 28.736H45.3849ZM46.3457 28.0664L43.8817 28.0004L43.8282 29.9996L46.2922 30.0656L46.3457 28.0664ZM43.8549 28C42.6216 28 41.5147 28.0601 40.539 28.184L40.7909 30.168C41.6632 30.0573 42.683 30 43.8549 30V28ZM41.4332 28.5358C41.5605 28.6886 41.5549 28.8237 41.5549 28.802H39.5549C39.5549 29.103 39.6227 29.4874 39.8967 29.8162L41.4332 28.5358ZM41.5472 28.926L41.5692 28.75L39.5847 28.502L39.5627 28.678L41.5472 28.926ZM40.7623 29.6087C41.1985 29.5264 41.6017 29.4136 41.9487 29.2554C42.2905 29.0996 42.6392 28.8718 42.8867 28.5252L41.2592 27.3628C41.2867 27.3242 41.276 27.3641 41.1191 27.4356C40.9675 27.5047 40.7327 27.579 40.3915 27.6433L40.7623 29.6087ZM42.897 28.5105C43.1908 28.0832 43.3348 27.5237 43.4149 26.9634L41.435 26.6806C41.3684 27.147 41.2778 27.3354 41.2489 27.3775L42.897 28.5105ZM43.4154 26.9596C43.4997 26.3525 43.5349 25.2581 43.5349 23.742H41.5349C41.5349 25.2765 41.4968 26.2355 41.4344 26.6844L43.4154 26.9596ZM43.5349 23.742C43.5349 22.2551 43.5289 21.3419 43.5088 21.1215L41.517 21.3025C41.5164 21.2956 41.5174 21.305 41.5188 21.3431C41.5201 21.377 41.5215 21.423 41.5228 21.4828C41.5254 21.602 41.5277 21.7652 41.5295 21.9742C41.5331 22.3915 41.5349 22.9803 41.5349 23.742H43.5349ZM43.5129 21.212C43.5129 21.0243 43.5045 20.791 43.4894 20.5185L41.4925 20.6295C41.5067 20.885 41.5129 21.077 41.5129 21.212H43.5129ZM43.4894 20.5185C43.4734 20.2302 43.4387 19.9249 43.3516 19.6638L41.4543 20.2962C41.4518 20.2888 41.4592 20.31 41.4687 20.374C41.4778 20.4351 41.4863 20.5189 41.4925 20.6295L43.4894 20.5185ZM43.3516 19.6638C43.284 19.461 43.1908 19.259 43.0828 19.0611L41.327 20.0189C41.3951 20.1436 41.4338 20.235 41.4543 20.2962L43.3516 19.6638ZM43.0899 19.0743C42.7383 18.4063 42.0988 18.122 41.4349 18.122V20.122C41.4934 20.122 41.4763 20.133 41.4253 20.1054C41.4002 20.0917 41.3756 20.0732 41.3547 20.0515C41.3342 20.0303 41.3237 20.0127 41.32 20.0057L43.0899 19.0743Z" fill="black"/>
</g>
</g>
<defs>
<filter id="filter0_d" x="0" y="0" width="164" height="148" filterUnits="userSpaceOnUse" color-interpolation-filters="sRGB">
<feFlood flood-opacity="0" result="BackgroundImageFix"/>
<feColorMatrix in="SourceAlpha" type="matrix" values="0 0 0 0 0 0 0 0 0 0 0 0 0 0 0 0 0 0 127 0" result="hardAlpha"/>
<feOffset dy="4"/>
<feGaussianBlur stdDeviation="2"/>
<feComposite in2="hardAlpha" operator="out"/>
<feColorMatrix type="matrix" values="0 0 0 0 0 0 0 0 0 0 0 0 0 0 0 0 0 0 0.25 0"/>
<feBlend mode="normal" in2="BackgroundImageFix" result="effect1_dropShadow"/>
<feBlend mode="normal" in="SourceGraphic" in2="effect1_dropShadow" result="shape"/>
</filter>
<filter id="filter1_i" x="11.1905" y="13.15" width="39.0765" height="21.3904" filterUnits="userSpaceOnUse" color-interpolation-filters="sRGB">
<feFlood flood-opacity="0" result="BackgroundImageFix"/>
<feBlend mode="normal" in="SourceGraphic" in2="BackgroundImageFix" result="shape"/>
<feColorMatrix in="SourceAlpha" type="matrix" values="0 0 0 0 0 0 0 0 0 0 0 0 0 0 0 0 0 0 127 0" result="hardAlpha"/>
<feOffset dy="4"/>
<feGaussianBlur stdDeviation="2"/>
<feComposite in2="hardAlpha" operator="arithmetic" k2="-1" k3="1"/>
<feColorMatrix type="matrix" values="0 0 0 0 0 0 0 0 0 0 0 0 0 0 0 0 0 0 0.25 0"/>
<feBlend mode="normal" in2="shape" result="effect1_innerShadow"/>
</filter>
</defs>
</svg>
