<svg width="400" height="400" viewBox="0 0 400 400" fill="none" xmlns="http://www.w3.org/2000/svg">
<rect width="400" height="400" fill="#E5E5E5"/>
<g id="Frame 1">
<rect width="400" height="400" fill="white"/>
<circle id="dough" cx="200" cy="200" r="150" fill="#BB600C"/>
<path id="inner" d="M82.5515 131.764C82.5515 131.764 115.052 68.7641 189.052 64.2641C263.052 59.7641 306.052 114.264 306.052 114.264C342.064 168.661 339.611 200.901 311.052 260.264C286.518 306.996 263.201 319.69 207.052 321.764C151.018 323.476 125.321 310.92 88.0515 268.264C60.7064 213.262 58.7009 183.321 82.5515 131.764Z" fill="#FFBE83"/>
<g id="pepperonies">
<g id="pepperoni">
<circle id="p-circle" cx="128.5" cy="158.5" r="23.5" fill="#AA0909"/>
<g id="p-dots">
<ellipse id="Ellipse 2" cx="117.5" cy="146" rx="5.5" ry="5" fill="#FFFEFE"/>
<ellipse id="Ellipse 3" cx="112" cy="158.5" rx="4" ry="3.5" fill="#FFFEFE"/>
<ellipse id="Ellipse 4" cx="130.5" cy="159" rx="5.5" ry="6" fill="#FFFEFE"/>
<ellipse id="Ellipse 5" cx="126" cy="173.5" rx="4" ry="3.5" fill="#FFFEFE"/>
<ellipse id="Ellipse 6" cx="137.5" cy="142.5" rx="3.5" ry="2.5" fill="#FFFEFE"/>
</g>
</g>
<g id="pepperoni_2">
<circle id="p-circle_2" cx="228.5" cy="253.5" r="23.5" fill="#AA0909"/>
<g id="p-dots_2">
<ellipse id="Ellipse 2_2" cx="217.5" cy="241" rx="5.5" ry="5" fill="#FFFEFE"/>
<ellipse id="Ellipse 3_2" cx="212" cy="253.5" rx="4" ry="3.5" fill="#FFFEFE"/>
<ellipse id="Ellipse 4_2" cx="230.5" cy="254" rx="5.5" ry="6" fill="#FFFEFE"/>
<ellipse id="Ellipse 5_2" cx="226" cy="268.5" rx="4" ry="3.5" fill="#FFFEFE"/>
<ellipse id="Ellipse 6_2" cx="237.5" cy="237.5" rx="3.5" ry="2.5" fill="#FFFEFE"/>
</g>
</g>
<g id="pepperoni_3">
<circle id="p-circle_3" cx="140.5" cy="245.5" r="23.5" fill="#AA0909"/>
<g id="p-dots_3">
<ellipse id="Ellipse 2_3" cx="129.5" cy="233" rx="5.5" ry="5" fill="#FFFEFE"/>
<ellipse id="Ellipse 3_3" cx="124" cy="245.5" rx="4" ry="3.5" fill="#FFFEFE"/>
<ellipse id="Ellipse 4_3" cx="142.5" cy="246" rx="5.5" ry="6" fill="#FFFEFE"/>
<ellipse id="Ellipse 5_3" cx="138" cy="260.5" rx="4" ry="3.5" fill="#FFFEFE"/>
<ellipse id="Ellipse 6_3" cx="149.5" cy="229.5" rx="3.5" ry="2.5" fill="#FFFEFE"/>
</g>
</g>
<g id="pepperoni_4">
<circle id="p-circle_4" cx="278.5" cy="175.5" r="23.5" fill="#AA0909"/>
<g id="p-dots_4">
<ellipse id="Ellipse 2_4" cx="267.5" cy="163" rx="5.5" ry="5" fill="#FFFEFE"/>
<ellipse id="Ellipse 3_4" cx="262" cy="175.5" rx="4" ry="3.5" fill="#FFFEFE"/>
<ellipse id="Ellipse 4_4" cx="280.5" cy="176" rx="5.5" ry="6" fill="#FFFEFE"/>
<ellipse id="Ellipse 5_4" cx="276" cy="190.5" rx="4" ry="3.5" fill="#FFFEFE"/>
<ellipse id="Ellipse 6_4" cx="287.5" cy="159.5" rx="3.5" ry="2.5" fill="#FFFEFE"/>
</g>
</g>
<g id="pepperoni_5">
<circle id="p-circle_5" cx="192.5" cy="192.5" r="23.5" fill="#AA0909"/>
<g id="p-dots_5">
<ellipse id="Ellipse 2_5" cx="181.5" cy="180" rx="5.5" ry="5" fill="#FFFEFE"/>
<ellipse id="Ellipse 3_5" cx="176" cy="192.5" rx="4" ry="3.5" fill="#FFFEFE"/>
<ellipse id="Ellipse 4_5" cx="194.5" cy="193" rx="5.5" ry="6" fill="#FFFEFE"/>
<ellipse id="Ellipse 5_5" cx="190" cy="207.5" rx="4" ry="3.5" fill="#FFFEFE"/>
<ellipse id="Ellipse 6_5" cx="201.5" cy="176.5" rx="3.5" ry="2.5" fill="#FFFEFE"/>
</g>
</g>
<g id="pepperoni_6">
<circle id="p-circle_6" cx="198.5" cy="111.5" r="23.5" fill="#AA0909"/>
<g id="p-dots_6">
<ellipse id="Ellipse 2_6" cx="187.5" cy="99" rx="5.5" ry="5" fill="#FFFEFE"/>
<ellipse id="Ellipse 3_6" cx="182" cy="111.5" rx="4" ry="3.5" fill="#FFFEFE"/>
<ellipse id="Ellipse 4_6" cx="200.5" cy="112" rx="5.5" ry="6" fill="#FFFEFE"/>
<ellipse id="Ellipse 5_6" cx="196" cy="126.5" rx="4" ry="3.5" fill="#FFFEFE"/>
<ellipse id="Ellipse 6_6" cx="207.5" cy="95.5" rx="3.5" ry="2.5" fill="#FFFEFE"/>
</g>
</g>
</g>
<g id="mushrooms">
<g id="mushroom">
<g id="Component 1">
<rect id="Rectangle 1" x="90" y="200" width="18" height="33" rx="9" fill="#C4C4C4"/>
<ellipse id="Ellipse 7" cx="99" cy="200.5" rx="23" ry="12.5" fill="#C4C4C4"/>
</g>
<g id="Component 2">
<rect id="Rectangle 1_2" x="92.8261" y="203.733" width="11.3478" height="21.2667" rx="5.67391" fill="#978D8D"/>
<ellipse id="Ellipse 7_2" cx="98.5" cy="204.056" rx="14.5" ry="8.05556" fill="#978D8D"/>
</g>
</g>
<g id="mushroom_2">
<g id="Component 1_2">
<rect id="Rectangle 1_3" x="246.094" y="115.57" width="18" height="33" rx="9" transform="rotate(19.824 246.094 115.57)" fill="#C4C4C4"/>
<ellipse id="Ellipse 7_3" cx="254.391" cy="119.093" rx="23" ry="12.5" transform="rotate(19.824 254.391 119.093)" fill="#C4C4C4"/>
</g>
<g id="Component 2_2">
<rect id="Rectangle 1_4" x="247.487" y="120.041" width="11.3478" height="21.2667" rx="5.67391" transform="rotate(19.824 247.487 120.041)" fill="#978D8D"/>
<ellipse id="Ellipse 7_4" cx="252.715" cy="122.268" rx="14.5" ry="8.05556" transform="rotate(19.824 252.715 122.268)" fill="#978D8D"/>
</g>
</g>
<g id="mushroom_3">
<g id="Component 1_3">
<rect id="Rectangle 1_5" x="268.478" y="223.6" width="16.0435" height="26.4" rx="8.02174" fill="#C4C4C4"/>
<ellipse id="Ellipse 7_5" cx="276.5" cy="224" rx="20.5" ry="10" fill="#C4C4C4"/>
</g>
<g id="Component 2_3">
<rect id="Rectangle 1_6" x="270.997" y="226.587" width="10.1144" height="17.0133" rx="5.05718" fill="#978D8D"/>
<ellipse id="Ellipse 7_6" cx="276.054" cy="226.844" rx="12.9239" ry="6.44444" fill="#978D8D"/>
</g>
</g>
<g id="mushroom_4">
<g id="Component 1_4">
<rect id="Rectangle 1_7" x="174.52" y="285.354" width="16.0435" height="29.3333" rx="8.02174" transform="rotate(21.8102 174.52 285.354)" fill="#C4C4C4"/>
<ellipse id="Ellipse 7_7" cx="181.803" cy="288.747" rx="20.5" ry="11.1111" transform="rotate(21.8102 181.803 288.747)" fill="#C4C4C4"/>
</g>
<g id="Component 2_4">
<rect id="Rectangle 1_8" x="175.626" y="289.371" width="10.1144" height="18.9037" rx="5.05718" transform="rotate(21.8102 175.626 289.371)" fill="#978D8D"/>
<ellipse id="Ellipse 7_8" cx="180.215" cy="291.516" rx="12.9239" ry="7.16049" transform="rotate(21.8102 180.215 291.516)" fill="#978D8D"/>
</g>
</g>
</g>
<g id="peppers">
<rect id="pepper" x="175.374" y="134" width="6" height="36" rx="3" transform="rotate(20.1039 175.374 134)" fill="#636C62"/>
<rect id="pepper" x="125.689" y="98.5943" width="8.44787" height="47.0896" rx="4.22394" transform="rotate(-50.1878 125.689 98.5943)" fill="#636C62"/>
<rect id="pepper" x="224.874" y="177.946" width="5.12337" height="34.7753" rx="2.56168" transform="rotate(-13.4955 224.874 177.946)" fill="#636C62"/>
<rect id="pepper" x="116.544" y="276.244" width="5.12337" height="34.7753" rx="2.56168" transform="rotate(-57.215 116.544 276.244)" fill="#636C62"/>
<rect id="pepper" x="262.057" y="275.943" width="7.80707" height="34.7753" rx="3.90353" transform="rotate(46.0655 262.057 275.943)" fill="#636C62"/>
<rect id="pepper" x="185.084" y="229.055" width="7.80707" height="34.7753" rx="3.90353" transform="rotate(12.1835 185.084 229.055)" fill="#636C62"/>
</g>
</g>
</svg>
