<svg width="500" height="500" viewBox="0 0 500 500" fill="none" xmlns="http://www.w3.org/2000/svg">
<g id="Frame 1">
<rect width="500" height="500" fill="white"/>
<path id="logo" d="M205.684 175C188.773 175 175 188.773 175 205.684V294.316C175 311.227 188.773 325 205.684 325H294.316C311.227 325 325 311.227 325 294.316V205.684C325 188.773 311.227 175 294.316 175H205.684ZM218.367 198.863H246.59C259.066 198.863 267.863 201.793 266.84 215.703C265.918 228.52 257.637 230.879 257.637 230.879C257.637 230.879 260.328 235.82 259.375 245.16C258.387 255.012 259.48 258.66 260.398 260.227H243.629C243.629 260.227 242.672 258.215 243.148 254.293C244.613 242.637 242.941 236.363 234.793 236.363H225.012L219.766 260.227H205.203L218.367 198.863ZM230.531 209.191L227.195 226.035H242.43C247.031 226.035 251.941 224.496 253.137 218.566C254.363 212.531 250.105 209.191 245.605 209.191H230.531ZM274.988 246.59L278.227 266.945H297.727L280.004 280.07L284.09 301.137L267.625 288.352L246.59 301.137L256.48 279.352L243.184 267.047H263.637L274.988 246.59Z" fill="black"/>
</g>
</svg>
